<svg width="16" height="21" viewBox="0 0 16 21" fill="none" xmlns="http://www.w3.org/2000/svg">
<rect width="16" height="21" fill="#1E1E1E"/>
<g clip-path="url(#clip0_0_1)">
<rect width="1366" height="9256" transform="translate(-1223 -81)" fill="white"/>
<g filter="url(#filter0_d_0_1)">
<rect x="-1223" y="-33" width="1366" height="88" fill="white"/>
</g>
<g clip-path="url(#clip1_0_1)">
<path d="M16 21H14V19C14 18.2044 13.6839 17.4413 13.1213 16.8787C12.5587 16.3161 11.7956 16 11 16H5C4.20435 16 3.44129 16.3161 2.87868 16.8787C2.31607 17.4413 2 18.2044 2 19V21H0V19C0 17.6739 0.526784 16.4021 1.46447 15.4645C2.40215 14.5268 3.67392 14 5 14H11C12.3261 14 13.5979 14.5268 14.5355 15.4645C15.4732 16.4021 16 17.6739 16 19V21ZM8 12C7.21207 12 6.43185 11.8448 5.7039 11.5433C4.97595 11.2417 4.31451 10.7998 3.75736 10.2426C3.20021 9.68549 2.75825 9.02405 2.45672 8.2961C2.15519 7.56815 2 6.78793 2 6C2 5.21207 2.15519 4.43185 2.45672 3.7039C2.75825 2.97595 3.20021 2.31451 3.75736 1.75736C4.31451 1.20021 4.97595 0.758251 5.7039 0.456723C6.43185 0.155195 7.21207 -1.17411e-08 8 0C9.5913 2.37122e-08 11.1174 0.632141 12.2426 1.75736C13.3679 2.88258 14 4.4087 14 6C14 7.5913 13.3679 9.11742 12.2426 10.2426C11.1174 11.3679 9.5913 12 8 12ZM8 10C9.06087 10 10.0783 9.57857 10.8284 8.82843C11.5786 8.07828 12 7.06087 12 6C12 4.93913 11.5786 3.92172 10.8284 3.17157C10.0783 2.42143 9.06087 2 8 2C6.93913 2 5.92172 2.42143 5.17157 3.17157C4.42143 3.92172 4 4.93913 4 6C4 7.06087 4.42143 8.07828 5.17157 8.82843C5.92172 9.57857 6.93913 10 8 10Z" fill="#858585"/>
</g>
</g>
<defs>
<filter id="filter0_d_0_1" x="-1244" y="-46" width="1408" height="130" filterUnits="userSpaceOnUse" color-interpolation-filters="sRGB">
<feFlood flood-opacity="0" result="BackgroundImageFix"/>
<feColorMatrix in="SourceAlpha" type="matrix" values="0 0 0 0 0 0 0 0 0 0 0 0 0 0 0 0 0 0 127 0" result="hardAlpha"/>
<feOffset dy="8"/>
<feGaussianBlur stdDeviation="10.5"/>
<feComposite in2="hardAlpha" operator="out"/>
<feColorMatrix type="matrix" values="0 0 0 0 0 0 0 0 0 0 0 0 0 0 0 0 0 0 0.16 0"/>
<feBlend mode="normal" in2="BackgroundImageFix" result="effect1_dropShadow_0_1"/>
<feBlend mode="normal" in="SourceGraphic" in2="effect1_dropShadow_0_1" result="shape"/>
</filter>
<clipPath id="clip0_0_1">
<rect width="1366" height="9256" fill="white" transform="translate(-1223 -81)"/>
</clipPath>
<clipPath id="clip1_0_1">
<rect width="24" height="24" fill="white" transform="translate(-4 -1)"/>
</clipPath>
</defs>
</svg>
