<svg width="21" height="19" viewBox="0 0 21 19" fill="none" xmlns="http://www.w3.org/2000/svg">
<rect width="21" height="19" fill="#1E1E1E"/>
<g clip-path="url(#clip0_0_1)">
<rect width="1366" height="9256" transform="translate(-1123 -83)" fill="white"/>
<g filter="url(#filter0_d_0_1)">
<rect x="-1123" y="-35" width="1366" height="88" fill="white"/>
</g>
<g clip-path="url(#clip1_0_1)">
<path d="M18.9096 1.75698C21.1716 4.02498 21.2496 7.63698 19.1456 9.99298L10.6656 18.485L2.18763 9.99298C0.083632 7.63698 0.162632 4.01898 2.42363 1.75698C4.68863 -0.50702 8.31163 -0.58302 10.6676 1.52898C13.0166 -0.58002 16.6466 -0.51002 18.9096 1.75698ZM3.83863 3.17198C2.34863 4.66198 2.27363 7.04698 3.64663 8.62298L10.6666 15.654L17.6866 8.62398C19.0606 7.04698 18.9856 4.66498 17.4936 3.16998C16.0066 1.67998 13.6126 1.60798 12.0406 2.98398L7.83863 7.18698L6.42363 5.77298L9.24863 2.94598L9.16663 2.87698C7.59163 1.61198 5.28963 1.71998 3.83863 3.17198Z" fill="#858585"/>
</g>
</g>
<defs>
<filter id="filter0_d_0_1" x="-1144" y="-48" width="1408" height="130" filterUnits="userSpaceOnUse" color-interpolation-filters="sRGB">
<feFlood flood-opacity="0" result="BackgroundImageFix"/>
<feColorMatrix in="SourceAlpha" type="matrix" values="0 0 0 0 0 0 0 0 0 0 0 0 0 0 0 0 0 0 127 0" result="hardAlpha"/>
<feOffset dy="8"/>
<feGaussianBlur stdDeviation="10.5"/>
<feComposite in2="hardAlpha" operator="out"/>
<feColorMatrix type="matrix" values="0 0 0 0 0 0 0 0 0 0 0 0 0 0 0 0 0 0 0.16 0"/>
<feBlend mode="normal" in2="BackgroundImageFix" result="effect1_dropShadow_0_1"/>
<feBlend mode="normal" in="SourceGraphic" in2="effect1_dropShadow_0_1" result="shape"/>
</filter>
<clipPath id="clip0_0_1">
<rect width="1366" height="9256" fill="white" transform="translate(-1123 -83)"/>
</clipPath>
<clipPath id="clip1_0_1">
<rect width="24" height="24" fill="white" transform="translate(-1.33337 -3)"/>
</clipPath>
</defs>
</svg>
