<svg width="21" height="21" viewBox="0 0 21 21" fill="none" xmlns="http://www.w3.org/2000/svg">
<rect width="21" height="21" fill="#1E1E1E"/>
<g clip-path="url(#clip0_0_1)">
<rect width="1366" height="9256" transform="translate(-1075 -82)" fill="white"/>
<g filter="url(#filter0_d_0_1)">
<rect x="-1075" y="-34" width="1366" height="88" fill="white"/>
</g>
<g clip-path="url(#clip1_0_1)">
<path d="M16.031 14.617L20.314 18.899L18.899 20.314L14.617 16.031C13.0237 17.3082 11.042 18.0029 9 18C4.032 18 0 13.968 0 9C0 4.032 4.032 0 9 0C13.968 0 18 4.032 18 9C18.0029 11.042 17.3082 13.0237 16.031 14.617ZM14.025 13.875C15.2941 12.5699 16.0029 10.8204 16 9C16 5.132 12.867 2 9 2C5.132 2 2 5.132 2 9C2 12.867 5.132 16 9 16C10.8204 16.0029 12.5699 15.2941 13.875 14.025L14.025 13.875Z" fill="#858585"/>
</g>
</g>
<defs>
<filter id="filter0_d_0_1" x="-1096" y="-47" width="1408" height="130" filterUnits="userSpaceOnUse" color-interpolation-filters="sRGB">
<feFlood flood-opacity="0" result="BackgroundImageFix"/>
<feColorMatrix in="SourceAlpha" type="matrix" values="0 0 0 0 0 0 0 0 0 0 0 0 0 0 0 0 0 0 127 0" result="hardAlpha"/>
<feOffset dy="8"/>
<feGaussianBlur stdDeviation="10.5"/>
<feComposite in2="hardAlpha" operator="out"/>
<feColorMatrix type="matrix" values="0 0 0 0 0 0 0 0 0 0 0 0 0 0 0 0 0 0 0.16 0"/>
<feBlend mode="normal" in2="BackgroundImageFix" result="effect1_dropShadow_0_1"/>
<feBlend mode="normal" in="SourceGraphic" in2="effect1_dropShadow_0_1" result="shape"/>
</filter>
<clipPath id="clip0_0_1">
<rect width="1366" height="9256" fill="white" transform="translate(-1075 -82)"/>
</clipPath>
<clipPath id="clip1_0_1">
<rect width="24" height="24" fill="white" transform="translate(-2 -2)"/>
</clipPath>
</defs>
</svg>
