<svg width="19" height="20" viewBox="0 0 19 20" fill="none" xmlns="http://www.w3.org/2000/svg">
<rect width="19" height="20" fill="#1E1E1E"/>
<g clip-path="url(#clip0_0_1)">
<rect width="1366" height="9256" transform="translate(-1173 -82)" fill="white"/>
<g filter="url(#filter0_d_0_1)">
<rect x="-1173" y="-34" width="1366" height="88" fill="white"/>
</g>
<g clip-path="url(#clip1_0_1)">
<path d="M3.83325 0H14.8333C14.9885 0 15.1416 0.036145 15.2805 0.105573C15.4193 0.175 15.5401 0.275804 15.6333 0.4L18.3333 4V19C18.3333 19.2652 18.2279 19.5196 18.0404 19.7071C17.8528 19.8946 17.5985 20 17.3333 20H1.33325C1.06804 20 0.813681 19.8946 0.626145 19.7071C0.438609 19.5196 0.333252 19.2652 0.333252 19V4L3.03325 0.4C3.1264 0.275804 3.24718 0.175 3.38604 0.105573C3.52489 0.036145 3.67801 0 3.83325 0ZM16.3333 6H2.33325V18H16.3333V6ZM15.8333 4L14.3333 2H4.33325L2.83325 4H15.8333ZM6.33325 8V10C6.33325 10.7956 6.64932 11.5587 7.21193 12.1213C7.77454 12.6839 8.5376 13 9.33325 13C10.1289 13 10.892 12.6839 11.4546 12.1213C12.0172 11.5587 12.3333 10.7956 12.3333 10V8H14.3333V10C14.3333 11.3261 13.8065 12.5979 12.8688 13.5355C11.9311 14.4732 10.6593 15 9.33325 15C8.00717 15 6.7354 14.4732 5.79772 13.5355C4.86004 12.5979 4.33325 11.3261 4.33325 10V8H6.33325Z" fill="#858585"/>
</g>
</g>
<defs>
<filter id="filter0_d_0_1" x="-1194" y="-47" width="1408" height="130" filterUnits="userSpaceOnUse" color-interpolation-filters="sRGB">
<feFlood flood-opacity="0" result="BackgroundImageFix"/>
<feColorMatrix in="SourceAlpha" type="matrix" values="0 0 0 0 0 0 0 0 0 0 0 0 0 0 0 0 0 0 127 0" result="hardAlpha"/>
<feOffset dy="8"/>
<feGaussianBlur stdDeviation="10.5"/>
<feComposite in2="hardAlpha" operator="out"/>
<feColorMatrix type="matrix" values="0 0 0 0 0 0 0 0 0 0 0 0 0 0 0 0 0 0 0.16 0"/>
<feBlend mode="normal" in2="BackgroundImageFix" result="effect1_dropShadow_0_1"/>
<feBlend mode="normal" in="SourceGraphic" in2="effect1_dropShadow_0_1" result="shape"/>
</filter>
<clipPath id="clip0_0_1">
<rect width="1366" height="9256" fill="white" transform="translate(-1173 -82)"/>
</clipPath>
<clipPath id="clip1_0_1">
<rect width="24" height="24" fill="white" transform="translate(-2.66675 -2)"/>
</clipPath>
</defs>
</svg>
